<svg xmlns="http://www.w3.org/2000/svg" width="420.31" height="183.445"><g fill="#ed583a"><path d="M156.95 29.676a7.26 7.26 0 0 1-7.263-7.27 7.26 7.26 0 0 1 7.262-7.27 7.26 7.26 0 0 1 7.26 7.27 7.26 7.26 0 0 1-7.26 7.27zm0-29.643c-12.347 0-22.346 10.013-22.346 22.373 0 2.636.48 5.154 1.314 7.503H58.734C57.61 35.42 55.16 40.4 51.89 44.73l45.672-.006v75.694c5.5 1.133 10.467 3.577 14.785 6.85V44.723l44.602.056c12.344 0 22.344-10.014 22.344-22.374S169.294.034 156.95.034"/><path d="M22.35 29.676a7.262 7.262 0 0 1-7.266-7.27 7.263 7.263 0 0 1 7.266-7.27 7.262 7.262 0 0 1 7.263 7.27 7.26 7.26 0 0 1-7.263 7.27zM127.314 0L22.35.033C10.002.033 0 10.046 0 22.406c0 12.36 10.002 22.372 22.35 22.372 12.343 0 22.342-10.013 22.342-22.372 0-2.672-.492-5.224-1.348-7.6h77.12c1.137-5.504 3.58-10.476 6.85-14.806M90.012 164.19a7.263 7.263 0 0 1-7.265-7.273c0-4.02 3.25-7.27 7.265-7.27a7.26 7.26 0 0 1 7.264 7.27 7.26 7.26 0 0 1-7.264 7.272zm0-29.646c-2.65 0-5.18.485-7.536 1.332V59.543H67.68l.01 96.893c-.003.16-.025.32-.025.48 0 12.36 10 22.378 22.346 22.378 12.344 0 22.346-10.017 22.346-22.377s-10.002-22.373-22.345-22.373"/></g><path style="line-height:125%;-inkscape-font-specification:MAXWELL REGULAR" d="M150.954 146.553c1.268 0 2.334-.432 3.2-1.297.864-.923 1.296-1.99 1.297-3.2v-40.213c0-6.515 2.307-12.08 6.92-16.69 4.61-4.614 10.175-6.92 16.69-6.92h5.448c1.21 0 2.277-.432 3.2-1.297.865-.865 1.297-1.93 1.297-3.2 0-1.268-.432-2.335-1.297-3.2-.923-.864-1.99-1.297-3.2-1.297h-5.448c-8.994 0-16.662 3.17-23.004 9.512-6.4 6.4-9.6 14.097-9.6 23.09v40.214c0 1.21.433 2.277 1.298 3.2.922.865 1.99 1.297 3.2 1.297M209.76 49.522c1.903 0 3.517-.663 4.843-1.99 1.326-1.325 1.99-2.94 1.99-4.842 0-1.903-.664-3.517-1.99-4.843s-2.94-1.99-4.842-1.99c-1.902 0-3.516.664-4.842 1.99-1.326 1.326-1.99 2.94-1.99 4.843 0 1.902.664 3.517 1.99 4.842 1.326 1.327 2.94 1.99 4.843 1.99m4.843 92.188c0 1.326-.46 2.48-1.383 3.46-.98.922-2.133 1.383-3.46 1.383-1.326 0-2.48-.46-3.46-1.384-.92-.98-1.382-2.134-1.382-3.46V68.288c0-1.326.46-2.48 1.383-3.46.98-.922 2.134-1.383 3.46-1.383 1.327 0 2.48.46 3.46 1.384.922.98 1.383 2.132 1.383 3.458v73.422M243.834 101.15c0-6.457 2.277-11.962 6.832-16.517s10.06-6.832 16.518-6.832h.26c6.456 0 11.962 2.278 16.517 6.833 4.613 4.555 6.92 10.06 6.92 16.518v12.022c0 6.457-2.307 11.963-6.92 16.517-4.554 4.612-10.06 6.918-16.517 6.918h-.26c-6.456 0-11.962-2.306-16.517-6.92-4.555-4.553-6.832-10.06-6.832-16.516v-12.02m-4.497 78.956c1.21 0 2.248-.433 3.113-1.297.923-.864 1.384-1.93 1.384-3.2v-40.126c6.342 6.687 14.125 10.03 23.35 10.03h.26c8.936 0 16.575-3.14 22.917-9.425 6.285-6.343 9.427-13.982 9.427-22.918v-12.02c0-8.938-3.142-16.548-9.426-22.832-6.34-6.342-13.98-9.513-22.917-9.513h-.26c-8.936 0-16.546 3.17-22.83 9.513-6.342 6.284-9.513 13.894-9.513 22.83v74.46c0 1.27.432 2.336 1.297 3.2.865.865 1.932 1.298 3.2 1.298M338.736 146.12a4.01 4.01 0 0 0 1.816.433c1.903 0 3.258-.893 4.065-2.68.52-1.096.548-2.22.087-3.374-.404-1.154-1.182-1.99-2.335-2.508-4.73-2.076-8.505-5.305-11.33-9.686-2.825-4.382-4.238-9.138-4.238-14.27V40.268c0-1.21-.432-2.248-1.297-3.113-.865-.865-1.932-1.297-3.2-1.297-1.21 0-2.248.432-3.113 1.297-.865.865-1.297 1.902-1.297 3.113v73.768c0 6.92 1.902 13.29 5.707 19.113 3.748 5.822 8.792 10.146 15.134 12.97M384.722 145.342c9.167 0 16.95-3.344 23.35-10.03v12.192c0 6.458-2.277 11.964-6.832 16.518-4.612 4.555-10.118 6.832-16.518 6.832h-.26c-4.784 0-9.137-1.355-13.058-4.064-3.46-2.306-6.11-5.333-7.956-9.08-.52-1.096-1.355-1.846-2.508-2.25-1.153-.403-2.306-.316-3.46.26-1.095.52-1.844 1.355-2.248 2.508-.403 1.153-.317 2.306.26 3.46 2.48 5.13 6.11 9.31 10.896 12.54 5.42 3.69 11.445 5.534 18.075 5.534h.26c8.878 0 16.488-3.142 22.83-9.427 6.285-6.342 9.427-13.952 9.427-22.83V73.476c0-1.21-.433-2.25-1.297-3.114-.865-.922-1.932-1.383-3.2-1.383-1.21 0-2.25.46-3.114 1.383-.865.865-1.298 1.903-1.298 3.114v39.608c0 6.4-2.277 11.877-6.832 16.43-4.612 4.556-10.118 6.833-16.518 6.833h-.26c-6.456 0-11.962-2.277-16.517-6.832-4.555-4.554-6.832-10.03-6.832-16.43v-39.61c0-1.21-.432-2.248-1.297-3.113-.865-.922-1.903-1.383-3.113-1.383-1.27 0-2.335.46-3.2 1.383-.865.865-1.297 1.903-1.297 3.114v39.608c0 8.88 3.142 16.46 9.426 22.745 6.342 6.34 13.952 9.512 22.83 9.512h.26" font-size="170" font-weight="400" letter-spacing="0" word-spacing="0" fill="#1690c6" stroke="#1690c6" stroke-width="6.668" font-family="MAXWELL REGULAR"/></svg>